# WaveFront *.obj file (generated by Autodesk ATF)

mtllib Hydrus lowleg.mtl

g Body1

v -10.795000 -17.462500 -3.200546
v -10.795000 -19.106001 -2.984175
v -10.795000 -20.637500 -2.349807
v -10.795000 -21.952628 -1.340674
v -10.795000 -22.961761 -0.025546
v -10.795000 -23.596129 1.505953
v -10.795000 -23.812500 3.149454
v -12.065000 -23.812500 3.149454
v -12.065000 -23.596129 1.505953
v -12.065000 -22.961761 -0.025546
v -12.065000 -21.952628 -1.340674
v -12.065000 -20.637500 -2.349807
v -12.065000 -19.106001 -2.984175
v -12.065000 -17.462500 -3.200546
v -12.065000 -9.525000 -3.200546
v -10.795000 -9.525000 -3.200546
v -12.065000 -23.812500 11.412970
v -12.065000 -23.812500 19.676485
v -12.065000 -23.812500 27.940001
v -12.065000 -20.002500 31.750001
v -12.065000 -19.748500 31.750001
v -12.065000 -19.748500 37.465000
v -12.065000 -19.748500 43.179999
v -12.065000 -20.002500 43.179999
v -12.065000 -23.812500 46.989999
v -12.065000 -23.812500 55.245000
v -12.065000 -23.812500 63.500000
v -12.065000 -23.812500 71.755000
v -12.065000 -23.596129 73.398501
v -12.065000 -22.961761 74.930000
v -12.065000 -21.952628 76.245128
v -12.065000 -20.637500 77.254261
v -12.065000 -19.106001 77.888629
v -12.065000 -17.462500 78.105000
v -12.065000 -9.525000 78.105000
v -12.065000 -3.175000 71.755000
v -12.065000 -3.175000 61.277500
v -12.065000 -3.175000 50.800000
v -12.065000 -10.795000 43.180000
v -12.065000 -10.795000 37.465000
v -12.065000 -10.795000 31.750000
v -12.065000 -3.175000 24.130000
v -12.065000 -3.175000 13.639727
v -12.065000 -3.175000 3.149454
v -12.065000 -13.493750 67.941807
v -12.065000 -13.493750 57.778613
v -12.065000 -13.493750 47.615420
v -12.065000 -13.493750 27.289034
v -12.065000 -13.493750 17.125840
v -12.065000 -13.493750 6.962647
v -12.065000 -13.493750 37.452227
v -10.795000 -23.812500 71.755000
v -10.795000 -23.596129 73.398501
v -10.795000 -22.961761 74.930000
v -10.795000 -21.952628 76.245128
v -10.795000 -20.637500 77.254261
v -10.795000 -19.106001 77.888629
v -10.795000 -17.462500 78.105000
v -10.795000 -23.812500 46.989999
v -10.795000 -23.812500 55.245000
v -10.795000 -23.812500 63.500000
v -10.795000 -23.812500 27.940001
v -10.795000 -20.002500 31.750001
v -10.795000 -23.812500 11.412970
v -10.795000 -23.812500 19.676485
v -10.795000 -20.002500 43.179999
v -10.795000 -3.175000 3.149454
v -10.795000 -3.175000 13.639727
v -10.795000 -3.175000 24.130000
v -10.795000 -10.795000 31.750000
v -10.795000 -10.795000 37.465000
v -10.795000 -10.795000 43.180000
v -10.795000 -3.175000 50.800000
v -10.795000 -3.175000 61.277500
v -10.795000 -3.175000 71.755000
v -10.795000 -9.525000 78.105000
v -10.795000 -19.748500 43.179999
v -10.795000 -19.748500 37.465000
v -10.795000 -19.748500 31.750001
v -10.795000 -13.493750 6.962647
v -10.795000 -13.493750 17.125840
v -10.795000 -13.493750 27.289034
v -10.795000 -13.493750 37.465000
v -10.795000 -13.493750 57.778613
v -10.795000 -13.493750 47.615420
v -10.795000 -13.493750 67.941807
vt 1.270000 4.987278 0.000000
vt -0.000000 4.987278 0.000000
vt 1.270000 3.324852 0.000000
vt -0.000000 3.324852 0.000000
vt 1.270000 1.662426 0.000000
vt -0.000000 1.662426 0.000000
vt 1.270000 0.000000 0.000000
vt -0.000000 0.000000 0.000000
vt 1.270000 -1.662426 0.000000
vt -0.000000 -1.662426 0.000000
vt 1.270000 -3.324852 0.000000
vt -0.000000 -3.324852 0.000000
vt 1.270000 -4.987278 0.000000
vt -0.000000 -4.987278 0.000000
vt -6.350000 1.270000 0.000000
vt -14.287500 1.270000 0.000000
vt -6.350000 0.000000 0.000000
vt -14.287500 0.000000 0.000000
vt -37.808046 3.968750 0.000000
vt -37.808046 -3.968750 0.000000
vt -27.644853 0.000000 0.000000
vt -37.591675 -5.612251 0.000000
vt -36.957307 -7.143750 0.000000
vt -35.948174 -8.458878 0.000000
vt -34.633046 -9.468011 0.000000
vt -33.101547 -10.102379 0.000000
vt -31.458046 -10.318750 0.000000
vt -23.194530 -10.318750 0.000000
vt -17.481660 0.000000 0.000000
vt -14.931015 -10.318750 0.000000
vt -7.318466 0.000000 0.000000
vt -6.667499 -10.318750 0.000000
vt -2.857499 -6.254750 0.000000
vt -2.857499 -6.508750 0.000000
vt 2.857500 -6.254750 0.000000
vt 2.844727 0.000000 0.000000
vt -2.857500 2.698750 0.000000
vt -10.477500 10.318750 0.000000
vt -20.967773 10.318750 0.000000
vt -31.458046 10.318750 0.000000
vt 8.572499 -6.254750 0.000000
vt 8.572500 2.698750 0.000000
vt 2.857500 2.698750 0.000000
vt 8.572499 -6.508750 0.000000
vt 12.382499 -10.318750 0.000000
vt 13.007920 0.000000 0.000000
vt 16.192500 10.318750 0.000000
vt 23.171113 0.000000 0.000000
vt 26.670000 10.318750 0.000000
vt 33.334307 0.000000 0.000000
vt 37.147500 10.318750 0.000000
vt 43.497500 3.968750 0.000000
vt 43.497500 -3.968750 0.000000
vt 43.281129 -5.612251 0.000000
vt 42.646761 -7.143750 0.000000
vt 41.637628 -8.458878 0.000000
vt 40.322500 -9.468011 0.000000
vt 38.791001 -10.102379 0.000000
vt 37.147500 -10.318750 0.000000
vt 28.892500 -10.318750 0.000000
vt 20.637500 -10.318750 0.000000
vt -0.000000 4.987278 0.000000
vt -1.270000 4.987278 0.000000
vt -0.000000 3.324852 0.000000
vt -1.270000 3.324852 0.000000
vt -0.000000 1.662426 0.000000
vt -1.270000 1.662426 0.000000
vt -0.000000 0.000000 0.000000
vt -1.270000 0.000000 0.000000
vt -0.000000 -1.662426 0.000000
vt -1.270000 -1.662426 0.000000
vt -0.000000 -3.324852 0.000000
vt -1.270000 -3.324852 0.000000
vt -0.000000 -4.987278 0.000000
vt -1.270000 -4.987278 0.000000
vt 80.645000 1.270000 0.000000
vt 72.390000 1.270000 0.000000
vt 80.645000 0.000000 0.000000
vt 72.390000 0.000000 0.000000
vt 64.135000 1.270000 0.000000
vt 64.135000 0.000000 0.000000
vt 55.879999 1.270000 0.000000
vt 55.879999 0.000000 0.000000
vt -13.408385 -2.694077 0.000000
vt -12.138385 -2.694077 0.000000
vt -13.408385 2.694077 0.000000
vt -12.138385 2.694077 0.000000
vt 12.039454 0.000000 0.000000
vt 20.302970 0.000000 0.000000
vt 12.039454 1.270000 0.000000
vt 20.302970 1.270000 0.000000
vt 28.566485 0.000000 0.000000
vt 28.566485 1.270000 0.000000
vt 36.830001 0.000000 0.000000
vt 36.830001 1.270000 0.000000
vt -0.635000 -2.694077 0.000000
vt 0.635000 -2.694077 0.000000
vt -0.635000 2.694077 0.000000
vt 0.635000 2.694077 0.000000
vt -10.318750 -23.194530 0.000000
vt -10.318750 -31.458046 0.000000
vt 0.000000 -27.644853 0.000000
vt -10.102379 -33.101547 0.000000
vt -9.468011 -34.633046 0.000000
vt -8.458878 -35.948174 0.000000
vt -7.143750 -36.957307 0.000000
vt -5.612251 -37.591675 0.000000
vt -3.968750 -37.808046 0.000000
vt 3.968750 -37.808046 0.000000
vt 10.318750 -31.458046 0.000000
vt 10.318750 -20.967773 0.000000
vt 0.000000 -17.481660 0.000000
vt -10.318750 -14.931015 0.000000
vt 0.000000 -7.318466 0.000000
vt -10.318750 -6.667499 0.000000
vt -6.254750 -2.857499 0.000000
vt -6.508750 -2.857499 0.000000
vt 10.318750 -10.477500 0.000000
vt 2.698750 -2.857500 0.000000
vt 0.000000 2.857500 0.000000
vt 2.698750 2.857500 0.000000
vt 2.698750 8.572500 0.000000
vt 10.318750 16.192500 0.000000
vt 0.000000 13.007920 0.000000
vt -6.254750 8.572499 0.000000
vt -6.254750 2.857500 0.000000
vt 0.000000 23.171113 0.000000
vt 10.318750 26.670000 0.000000
vt 0.000000 33.334307 0.000000
vt 10.318750 37.147500 0.000000
vt 3.968750 43.497500 0.000000
vt -3.968750 43.497500 0.000000
vt -5.612251 43.281129 0.000000
vt -7.143750 42.646761 0.000000
vt -8.458878 41.637628 0.000000
vt -9.468011 40.322500 0.000000
vt -10.102379 38.791001 0.000000
vt -10.318750 37.147500 0.000000
vt -10.318750 28.892500 0.000000
vt -10.318750 20.637500 0.000000
vt -10.318750 12.382499 0.000000
vt -6.508750 8.572499 0.000000
vt 1.270000 4.490128 0.000000
vt 0.000000 4.490128 0.000000
vt 1.270000 -4.490128 0.000000
vt -0.000000 -4.490128 0.000000
vt 28.600546 1.270000 0.000000
vt 18.110273 1.270000 0.000000
vt 28.600546 0.000000 0.000000
vt 18.110273 0.000000 0.000000
vt 7.620000 1.270000 0.000000
vt 7.620000 0.000000 0.000000
vt -1.270000 -4.490128 0.000000
vt 0.000000 -4.490128 0.000000
vt -1.270000 4.490128 0.000000
vt 0.000000 4.490128 0.000000
vt 6.350000 0.000000 0.000000
vt 16.827500 0.000000 0.000000
vt 6.350000 1.270000 0.000000
vt 16.827500 1.270000 0.000000
vt 27.305000 0.000000 0.000000
vt 27.305000 1.270000 0.000000
vt -25.546770 3.810000 0.000000
vt -24.276770 3.810000 0.000000
vt -25.546770 4.064000 0.000000
vt -24.276770 4.064000 0.000000
vt -1.270000 3.810000 0.000000
vt -0.000000 3.810000 0.000000
vt -1.270000 4.064000 0.000000
vt -0.000000 4.064000 0.000000
vt 5.714999 -11.503385 0.000000
vt -0.000000 -11.503385 0.000000
vt 5.714999 -12.773385 0.000000
vt -0.000000 -12.773385 0.000000
vt -5.714999 -11.503385 0.000000
vt -5.714999 -12.773385 0.000000
vt -1.270000 -5.388154 0.000000
vt 0.000000 -5.388154 0.000000
vt -1.270000 5.388154 0.000000
vt 0.000000 5.388154 0.000000
vt 1.270000 5.388154 0.000000
vt 0.000000 5.388154 0.000000
vt 1.270000 -5.388154 0.000000
vt -0.000000 -5.388154 0.000000
vt 6.350000 0.000000 0.000000
vt 14.287500 0.000000 0.000000
vt 6.350000 1.270000 0.000000
vt 14.287500 1.270000 0.000000
vt 0.000000 0.000000 0.000000
vt 5.715000 0.000000 0.000000
vt 0.000000 1.270000 0.000000
vt 5.715000 1.270000 0.000000
vt 11.430000 0.000000 0.000000
vt 11.430000 1.270000 0.000000
vn -0.000000 0.000000 -1.000000
vn -0.000000 0.000000 -1.000000
vn -0.000000 -0.258819 -0.965926
vn -0.000000 -0.258819 -0.965926
vn -0.000000 -0.500000 -0.866025
vn -0.000000 -0.500000 -0.866025
vn -0.000000 -0.707107 -0.707107
vn -0.000000 -0.707107 -0.707107
vn -0.000000 -0.866025 -0.500000
vn -0.000000 -0.866025 -0.500000
vn -0.000000 -0.965926 -0.258819
vn -0.000000 -0.965926 -0.258819
vn -0.000000 -1.000000 0.000000
vn -0.000000 -1.000000 0.000000
vn -0.000000 0.000000 -1.000000
vn -0.000000 0.000000 -1.000000
vn -1.000000 0.000000 0.000000
vn -1.000000 0.000000 0.000000
vn -1.000000 0.000000 0.000000
vn -1.000000 0.000000 0.000000
vn -1.000000 0.000000 0.000000
vn -1.000000 0.000000 0.000000
vn -1.000000 0.000000 0.000000
vn -1.000000 0.000000 0.000000
vn -1.000000 0.000000 0.000000
vn -1.000000 0.000000 0.000000
vn -1.000000 0.000000 0.000000
vn -1.000000 0.000000 0.000000
vn -1.000000 0.000000 0.000000
vn -1.000000 0.000000 0.000000
vn -1.000000 0.000000 0.000000
vn -1.000000 0.000000 0.000000
vn -1.000000 0.000000 0.000000
vn -1.000000 0.000000 0.000000
vn -1.000000 0.000000 0.000000
vn -1.000000 0.000000 0.000000
vn -1.000000 0.000000 0.000000
vn -1.000000 0.000000 0.000000
vn -1.000000 0.000000 0.000000
vn -1.000000 0.000000 0.000000
vn -1.000000 0.000000 0.000000
vn -1.000000 0.000000 0.000000
vn -1.000000 0.000000 0.000000
vn -1.000000 0.000000 0.000000
vn -1.000000 0.000000 0.000000
vn -1.000000 0.000000 0.000000
vn -1.000000 0.000000 0.000000
vn -1.000000 0.000000 0.000000
vn -1.000000 0.000000 0.000000
vn -1.000000 0.000000 0.000000
vn -1.000000 0.000000 0.000000
vn -1.000000 0.000000 0.000000
vn -1.000000 0.000000 0.000000
vn -1.000000 0.000000 0.000000
vn -1.000000 0.000000 0.000000
vn -1.000000 0.000000 0.000000
vn -1.000000 0.000000 0.000000
vn -1.000000 0.000000 0.000000
vn -1.000000 0.000000 0.000000
vn -0.000000 -0.000000 1.000000
vn -0.000000 -0.000000 1.000000
vn -0.000000 -0.258819 0.965926
vn -0.000000 -0.258819 0.965926
vn -0.000000 -0.500000 0.866025
vn -0.000000 -0.500000 0.866025
vn -0.000000 -0.707107 0.707107
vn -0.000000 -0.707107 0.707107
vn -0.000000 -0.866025 0.500000
vn -0.000000 -0.866025 0.500000
vn -0.000000 -0.965926 0.258819
vn -0.000000 -0.965926 0.258819
vn -0.000000 -1.000000 0.000000
vn -0.000000 -1.000000 0.000000
vn -0.000000 -1.000000 -0.000000
vn -0.000000 -1.000000 -0.000000
vn -0.000000 -1.000000 -0.000000
vn -0.000000 -1.000000 -0.000000
vn -0.000000 -1.000000 -0.000000
vn -0.000000 -1.000000 -0.000000
vn 0.000000 -0.707107 0.707107
vn 0.000000 -0.707107 0.707107
vn 0.000000 -0.707107 0.707107
vn 0.000000 -0.707107 0.707107
vn -0.000000 -1.000000 -0.000000
vn -0.000000 -1.000000 -0.000000
vn -0.000000 -1.000000 -0.000000
vn -0.000000 -1.000000 -0.000000
vn -0.000000 -1.000000 -0.000000
vn -0.000000 -1.000000 -0.000000
vn 0.000000 -0.707107 -0.707107
vn 0.000000 -0.707107 -0.707107
vn 0.000000 -0.707107 -0.707107
vn 0.000000 -0.707107 -0.707107
vn 1.000000 -0.000000 -0.000000
vn 1.000000 -0.000000 -0.000000
vn 1.000000 -0.000000 -0.000000
vn 1.000000 -0.000000 -0.000000
vn 1.000000 -0.000000 -0.000000
vn 1.000000 -0.000000 -0.000000
vn 1.000000 -0.000000 -0.000000
vn 1.000000 -0.000000 -0.000000
vn 1.000000 -0.000000 -0.000000
vn 1.000000 -0.000000 -0.000000
vn 1.000000 -0.000000 -0.000000
vn 1.000000 -0.000000 -0.000000
vn 1.000000 -0.000000 -0.000000
vn 1.000000 -0.000000 -0.000000
vn 1.000000 -0.000000 -0.000000
vn 1.000000 -0.000000 -0.000000
vn 1.000000 -0.000000 -0.000000
vn 1.000000 -0.000000 -0.000000
vn 1.000000 -0.000000 -0.000000
vn 1.000000 -0.000000 -0.000000
vn 1.000000 -0.000000 -0.000000
vn 1.000000 -0.000000 -0.000000
vn 1.000000 -0.000000 -0.000000
vn 1.000000 -0.000000 -0.000000
vn 1.000000 -0.000000 -0.000000
vn 1.000000 -0.000000 -0.000000
vn 1.000000 -0.000000 -0.000000
vn 1.000000 -0.000000 -0.000000
vn 1.000000 -0.000000 -0.000000
vn 1.000000 -0.000000 -0.000000
vn 1.000000 -0.000000 -0.000000
vn 1.000000 -0.000000 -0.000000
vn 1.000000 -0.000000 -0.000000
vn 1.000000 -0.000000 -0.000000
vn 1.000000 -0.000000 -0.000000
vn 1.000000 -0.000000 -0.000000
vn 1.000000 -0.000000 -0.000000
vn 1.000000 -0.000000 -0.000000
vn 1.000000 -0.000000 -0.000000
vn 1.000000 -0.000000 -0.000000
vn 1.000000 -0.000000 -0.000000
vn 1.000000 -0.000000 -0.000000
vn 1.000000 -0.000000 -0.000000
vn 0.000000 0.707107 -0.707107
vn 0.000000 0.707107 -0.707107
vn 0.000000 0.707107 -0.707107
vn 0.000000 0.707107 -0.707107
vn 0.000000 1.000000 -0.000000
vn 0.000000 1.000000 -0.000000
vn 0.000000 1.000000 -0.000000
vn 0.000000 1.000000 -0.000000
vn 0.000000 1.000000 -0.000000
vn 0.000000 1.000000 -0.000000
vn 0.000000 0.707107 0.707107
vn 0.000000 0.707107 0.707107
vn 0.000000 0.707107 0.707107
vn 0.000000 0.707107 0.707107
vn 0.000000 1.000000 -0.000000
vn 0.000000 1.000000 -0.000000
vn 0.000000 1.000000 -0.000000
vn 0.000000 1.000000 -0.000000
vn 0.000000 1.000000 -0.000000
vn 0.000000 1.000000 -0.000000
vn -0.000000 -0.000000 1.000000
vn -0.000000 -0.000000 1.000000
vn -0.000000 -0.000000 1.000000
vn -0.000000 -0.000000 1.000000
vn -0.000000 -0.000000 -1.000000
vn -0.000000 -0.000000 -1.000000
vn -0.000000 -0.000000 -1.000000
vn -0.000000 -0.000000 -1.000000
vn -0.000000 -1.000000 -0.000000
vn -0.000000 -1.000000 -0.000000
vn -0.000000 -1.000000 -0.000000
vn -0.000000 -1.000000 -0.000000
vn -0.000000 -1.000000 -0.000000
vn -0.000000 -1.000000 -0.000000
vn 0.000000 0.707107 0.707107
vn 0.000000 0.707107 0.707107
vn 0.000000 0.707107 0.707107
vn 0.000000 0.707107 0.707107
vn 0.000000 0.707107 -0.707107
vn 0.000000 0.707107 -0.707107
vn 0.000000 0.707107 -0.707107
vn 0.000000 0.707107 -0.707107
vn 0.000000 0.000000 1.000000
vn 0.000000 0.000000 1.000000
vn 0.000000 1.000000 0.000000
vn 0.000000 1.000000 0.000000
vn 0.000000 1.000000 0.000000
vn 0.000000 1.000000 0.000000
vn 0.000000 1.000000 0.000000
vn 0.000000 1.000000 0.000000
usemtl Steel_-_Satin
f 14/1/1 1/2/2 13/3/3
f 13/3/3 1/2/2 2/4/4
f 13/3/3 2/4/4 12/5/5
f 12/5/5 2/4/4 3/6/6
f 12/5/5 3/6/6 11/7/7
f 11/7/7 3/6/6 4/8/8
f 11/7/7 4/8/8 10/9/9
f 10/9/9 4/8/8 5/10/10
f 10/9/9 5/10/10 9/11/11
f 9/11/11 5/10/10 6/12/12
f 9/11/11 6/12/12 8/13/13
f 8/13/13 6/12/12 7/14/14
f 14/15/1 15/16/15 1/17/2
f 1/17/2 15/16/15 16/18/16
f 15/19/17 14/20/18 50/21/19
f 50/21/19 14/20/18 13/22/20
f 50/21/19 13/22/20 12/23/21
f 12/23/21 11/24/22 50/21/19
f 50/21/19 11/24/22 10/25/23
f 50/21/19 10/25/23 9/26/24
f 9/26/24 8/27/25 50/21/19
f 50/21/19 8/27/25 17/28/26
f 50/21/19 17/28/26 49/29/27
f 49/29/27 17/28/26 18/30/28
f 49/29/27 18/30/28 48/31/29
f 48/31/29 18/30/28 19/32/30
f 48/31/29 19/32/30 21/33/31
f 21/33/31 19/32/30 20/34/32
f 22/35/33 51/36/34 21/33/31
f 21/33/31 51/36/34 41/37/35
f 21/33/31 41/37/35 48/31/29
f 48/31/29 41/37/35 42/38/36
f 48/31/29 42/38/36 49/29/27
f 49/29/27 42/38/36 43/39/37
f 49/29/27 43/39/37 50/21/19
f 50/21/19 43/39/37 44/40/38
f 50/21/19 44/40/38 15/19/17
f 22/35/33 23/41/39 51/36/34
f 51/36/34 23/41/39 39/42/40
f 51/36/34 39/42/40 40/43/41
f 24/44/42 25/45/43 23/41/39
f 23/41/39 25/45/43 47/46/44
f 23/41/39 47/46/44 39/42/40
f 39/42/40 47/46/44 38/47/45
f 38/47/45 47/46/44 46/48/46
f 38/47/45 46/48/46 37/49/47
f 37/49/47 46/48/46 45/50/48
f 37/49/47 45/50/48 36/51/49
f 36/51/49 45/50/48 35/52/50
f 35/52/50 45/50/48 34/53/51
f 34/53/51 45/50/48 33/54/52
f 33/54/52 45/50/48 32/55/53
f 32/55/53 45/50/48 31/56/54
f 31/56/54 45/50/48 30/57/55
f 30/57/55 45/50/48 29/58/56
f 29/58/56 45/50/48 28/59/57
f 28/59/57 45/50/48 27/60/58
f 27/60/58 45/50/48 46/48/46
f 27/60/58 46/48/46 26/61/59
f 26/61/59 46/48/46 47/46/44
f 26/61/59 47/46/44 25/45/43
f 40/43/41 41/37/35 51/36/34
f 58/62/60 34/63/61 57/64/62
f 57/64/62 34/63/61 33/65/63
f 57/64/62 33/65/63 56/66/64
f 56/66/64 33/65/63 32/67/65
f 56/66/64 32/67/65 55/68/66
f 55/68/66 32/67/65 31/69/67
f 55/68/66 31/69/67 54/70/68
f 54/70/68 31/69/67 30/71/69
f 54/70/68 30/71/69 53/72/70
f 53/72/70 30/71/69 29/73/71
f 53/72/70 29/73/71 52/74/72
f 52/74/72 29/73/71 28/75/73
f 28/76/73 27/77/74 52/78/72
f 52/78/72 27/77/74 61/79/75
f 61/79/75 27/77/74 26/80/76
f 61/79/75 26/80/76 60/81/77
f 60/81/77 26/80/76 25/82/78
f 60/81/77 25/82/78 59/83/79
f 19/84/80 62/85/81 20/86/82
f 20/86/82 62/85/81 63/87/83
f 7/88/14 64/89/84 8/90/13
f 8/90/13 64/89/84 17/91/85
f 17/91/85 64/89/84 65/92/86
f 17/91/85 65/92/86 18/93/87
f 18/93/87 65/92/86 62/94/88
f 18/93/87 62/94/88 19/95/89
f 59/96/90 25/97/91 66/98/92
f 66/98/92 25/97/91 24/99/93
f 64/100/94 7/101/95 80/102/96
f 80/102/96 7/101/95 6/103/97
f 80/102/96 6/103/97 5/104/98
f 5/104/98 4/105/99 80/102/96
f 80/102/96 4/105/99 3/106/100
f 80/102/96 3/106/100 2/107/101
f 2/107/101 1/108/102 80/102/96
f 80/102/96 1/108/102 16/109/103
f 80/102/96 16/109/103 67/110/104
f 67/110/104 68/111/105 80/102/96
f 80/102/96 68/111/105 81/112/106
f 80/102/96 81/112/106 64/100/94
f 64/100/94 81/112/106 65/113/107
f 65/113/107 81/112/106 82/114/108
f 65/113/107 82/114/108 62/115/109
f 62/115/109 82/114/108 79/116/110
f 62/115/109 79/116/110 63/117/111
f 68/111/105 69/118/112 81/112/106
f 81/112/106 69/118/112 82/114/108
f 69/118/112 70/119/113 82/114/108
f 82/114/108 70/119/113 79/116/110
f 79/116/110 70/119/113 83/120/114
f 83/120/114 70/119/113 71/121/115
f 83/120/114 71/121/115 72/122/116
f 73/123/117 85/124/118 72/122/116
f 72/122/116 85/124/118 77/125/119
f 72/122/116 77/125/119 83/120/114
f 83/120/114 77/125/119 78/126/120
f 83/120/114 78/126/120 79/116/110
f 85/124/118 73/123/117 84/127/121
f 84/127/121 73/123/117 74/128/122
f 84/127/121 74/128/122 86/129/123
f 86/129/123 74/128/122 75/130/124
f 86/129/123 75/130/124 76/131/125
f 76/131/125 58/132/126 86/129/123
f 86/129/123 58/132/126 57/133/127
f 86/129/123 57/133/127 56/134/128
f 56/134/128 55/135/129 86/129/123
f 86/129/123 55/135/129 54/136/130
f 86/129/123 54/136/130 53/137/131
f 53/137/131 52/138/132 86/129/123
f 86/129/123 52/138/132 61/139/133
f 86/129/123 61/139/133 84/127/121
f 84/127/121 61/139/133 60/140/134
f 84/127/121 60/140/134 85/124/118
f 85/124/118 60/140/134 59/141/135
f 85/124/118 59/141/135 77/125/119
f 77/125/119 59/141/135 66/142/136
f 44/143/137 67/144/138 15/145/139
f 15/145/139 67/144/138 16/146/140
f 44/147/141 43/148/142 67/149/143
f 67/149/143 43/148/142 68/150/144
f 68/150/144 43/148/142 42/151/145
f 68/150/144 42/151/145 69/152/146
f 35/153/147 76/154/148 36/155/149
f 36/155/149 76/154/148 75/156/150
f 75/157/151 74/158/152 36/159/153
f 36/159/153 74/158/152 37/160/154
f 37/160/154 74/158/152 73/161/155
f 37/160/154 73/161/155 38/162/156
f 20/163/157 63/164/158 21/165/159
f 21/165/159 63/164/158 79/166/160
f 66/167/161 24/168/162 77/169/163
f 77/169/163 24/168/162 23/170/164
f 79/171/165 78/172/166 21/173/167
f 21/173/167 78/172/166 22/174/168
f 22/174/168 78/172/166 77/175/169
f 22/174/168 77/175/169 23/176/170
f 41/177/171 70/178/172 42/179/173
f 42/179/173 70/178/172 69/180/174
f 38/181/175 73/182/176 39/183/177
f 39/183/177 73/182/176 72/184/178
f 58/185/60 76/186/179 34/187/61
f 34/187/61 76/186/179 35/188/180
f 72/189/181 71/190/182 39/191/183
f 39/191/183 71/190/182 40/192/184
f 40/192/184 71/190/182 70/193/185
f 40/192/184 70/193/185 41/194/186
# 86 vertices
# 194 texture params
# 186 normals
# 168 facets

# 1 groups
